# xmcd
#
# Track frame offsets: 
#        150
#        16289
#        34788
#        43869
#        56690
#        75251
#        88176
#        104925
#        117369
#        134887
#        149483
#        167404
#        186403
#
# Disc length: 2659 seconds
#
# Revision: 0
# Processed by: cddbd v1.5.1PL0 Copyright (c) Steve Scherf et al.
# Submitted via: ExactAudioCopy v0.90b4
#
DISCID=be0a610d
DTITLE=Alain Tambay - Here's Lookin' at You
DYEAR=2004
DGENRE=Acoustic
TTITLE0=Don't Leave
TTITLE1=How Long
TTITLE2=What's Goin' On
TTITLE3=I Can't Help It
TTITLE4=Fools Heart Attack
TTITLE5=Ain't Gonna Worry
TTITLE6=Take Me Home
TTITLE7=My Life
TTITLE8=Station
TTITLE9=That Will Never Do
TTITLE10=Said and Done
TTITLE11=Even A Good Man
TTITLE12=So Alone
EXTD=
EXTT0=
EXTT1=
EXTT2=
EXTT3=
EXTT4=
EXTT5=
EXTT6=
EXTT7=
EXTT8=
EXTT9=
EXTT10=
EXTT11=
EXTT12=
PLAYORDER=
